# xmcd
#
# Track frame offsets:
#	182
#	18940
#	33920
#	52987
#	66840
#	82900
#	93212
#	111445
#	126030
#	140652
#
# Disc length: 2084 seconds
#
# Revision: 0
# Processed by: cddbd v1.5.2PL0 Copyright (c) Steve Scherf et al.
# Submitted via: EasyCDDAExtractor 10.0.5.1
#
DISCID=7b08220a
DTITLE=Various Artist - Hot Hits: Adventurous New Music Sampler (Sega)
DYEAR=1992
DGENRE=Other
TTITLE0=Dramarama - Haven't Got A Clue
TTITLE1=Saigon Kick - Hostile Youth
TTITLE2=The Escape Club - The Edge Of Your Bed
TTITLE3=Yo-Yo - So Funky
TTITLE4=The Wolfgang Press - A Girl Like You
TTITLE5=They Might Be Giants - Mammal
TTITLE6=Chubb Rock - Lost In The Storm
TTITLE7=Throwing Muses - Firepile
TTITLE8=Sister Double Happiness - Sweet-Talker
TTITLE9=Lush - For Love
EXTD=
EXTT0=
EXTT1=
EXTT2=
EXTT3=
EXTT4=
EXTT5=
EXTT6=
EXTT7=
EXTT8=
EXTT9=
PLAYORDER=
